<?xml version="1.0" standalone="no"?>
<!DOCTYPE svg PUBLIC "-//W3C//DTD SVG 20010904//EN"
 "http://www.w3.org/TR/2001/REC-SVG-20010904/DTD/svg10.dtd">
<svg version="1.0" xmlns="http://www.w3.org/2000/svg"
 width="295.000000pt" height="295.000000pt" viewBox="0 0 295.000000 295.000000"
 preserveAspectRatio="xMidYMid meet">

<g transform="translate(0.000000,295.000000) scale(0.100000,-0.100000)"
fill="#000000" stroke="none">
<path d="M1317 2940 c-381 -48 -705 -216 -944 -489 -136 -155 -229 -316 -292
-506 -168 -504 -63 -1032 288 -1444 152 -179 396 -340 636 -420 377 -126 763
-101 1120 73 542 265 872 850 816 1447 -48 516 -330 938 -792 1183 -103 55
-293 120 -414 141 -109 19 -325 27 -418 15z m561 -867 l-3 -138 -90 -2 c-49
-2 -99 -5 -111 -8 -32 -7 -44 -48 -44 -145 l0 -90 125 0 c83 0 125 -4 125 -11
0 -16 -20 -199 -26 -236 l-5 -33 -109 0 -110 0 0 -400 0 -400 -170 0 -170 0 0
400 0 400 -80 0 -80 0 0 140 0 140 78 0 79 0 6 133 c8 152 24 219 70 279 33
43 116 93 167 101 14 2 98 5 188 6 l163 1 -3 -137z"/>
</g>
</svg>
