<?xml version="1.0" standalone="no"?>
<!DOCTYPE svg PUBLIC "-//W3C//DTD SVG 20010904//EN"
 "http://www.w3.org/TR/2001/REC-SVG-20010904/DTD/svg10.dtd">
<svg version="1.0" xmlns="http://www.w3.org/2000/svg"
 width="295.000000pt" height="295.000000pt" viewBox="0 0 295.000000 295.000000"
 preserveAspectRatio="xMidYMid meet">

<g transform="translate(0.000000,295.000000) scale(0.100000,-0.100000)"
fill="#065471" stroke="none">
<path d="M1317 2940 c-381 -48 -705 -216 -944 -489 -136 -155 -229 -316 -292
-506 -168 -504 -63 -1032 288 -1444 152 -179 396 -340 636 -420 377 -126 763
-101 1120 73 542 265 872 850 816 1447 -48 516 -330 938 -792 1183 -103 55
-293 120 -414 141 -109 19 -325 27 -418 15z m238 -830 c105 -15 188 -46 271
-102 41 -27 74 -53 74 -56 0 -4 -40 -47 -88 -95 l-88 -88 -25 19 c-102 80
-264 98 -384 41 -110 -52 -205 -183 -220 -304 -26 -203 122 -402 322 -434 161
-25 314 45 377 172 45 89 51 86 -146 89 l-173 3 -3 118 -3 117 304 0 305 0 6
-31 c11 -56 6 -168 -10 -246 -46 -223 -187 -381 -398 -449 -101 -32 -254 -37
-356 -11 -211 55 -379 213 -453 426 -72 207 -19 456 132 622 100 111 240 187
386 208 83 12 91 12 170 1z"/>
</g>
</svg>
