<svg width="28" height="28" viewBox="0 0 28 28" fill="none" xmlns="http://www.w3.org/2000/svg">
<path fill-rule="evenodd" clip-rule="evenodd" d="M3.58887 13.6288C3.58887 12.3905 4.59385 11.3855 5.83213 11.3855C7.07042 11.3855 8.0754 12.3905 8.0754 13.6288C8.0754 14.867 7.07042 15.872 5.83213 15.872C4.59385 15.872 3.58887 14.867 3.58887 13.6288ZM13.6835 11.3855C12.4453 11.3855 11.4403 12.3905 11.4403 13.6288C11.4403 14.867 12.4453 15.872 13.6835 15.872C14.9218 15.872 15.9268 14.867 15.9268 13.6288C15.9268 12.3905 14.9218 11.3855 13.6835 11.3855ZM21.535 11.3855C20.2967 11.3855 19.2917 12.3905 19.2917 13.6288C19.2917 14.867 20.2967 15.872 21.535 15.872C22.7733 15.872 23.7783 14.867 23.7783 13.6288C23.7783 12.3905 22.7733 11.3855 21.535 11.3855Z" fill="#231F20"/>
<mask id="mask0" mask-type="alpha" maskUnits="userSpaceOnUse" x="3" y="11" width="21" height="5">
<path fill-rule="evenodd" clip-rule="evenodd" d="M3.58887 13.6288C3.58887 12.3905 4.59385 11.3855 5.83213 11.3855C7.07042 11.3855 8.0754 12.3905 8.0754 13.6288C8.0754 14.867 7.07042 15.872 5.83213 15.872C4.59385 15.872 3.58887 14.867 3.58887 13.6288ZM13.6835 11.3855C12.4453 11.3855 11.4403 12.3905 11.4403 13.6288C11.4403 14.867 12.4453 15.872 13.6835 15.872C14.9218 15.872 15.9268 14.867 15.9268 13.6288C15.9268 12.3905 14.9218 11.3855 13.6835 11.3855ZM21.535 11.3855C20.2967 11.3855 19.2917 12.3905 19.2917 13.6288C19.2917 14.867 20.2967 15.872 21.535 15.872C22.7733 15.872 23.7783 14.867 23.7783 13.6288C23.7783 12.3905 22.7733 11.3855 21.535 11.3855Z" fill="white"/>
</mask>
<g mask="url(#mask0)">
<rect x="0.223633" y="0.169189" width="26.9192" height="26.9192" fill="#B7BDCB"/>
</g>
</svg>
